<svg width="228" height="12" viewBox="0 0 228 12" fill="none" xmlns="http://www.w3.org/2000/svg">
<path d="M10.96 3.488H7.136V12H4.064V3.488H0.208V0.799999H10.96V3.488ZM20.3314 0.799999C20.6514 0.799999 20.9607 0.863999 21.2594 0.992C21.558 1.12 21.8194 1.296 22.0434 1.52C22.2674 1.73333 22.4434 1.98933 22.5714 2.288C22.71 2.576 22.7794 2.89067 22.7794 3.232V9.568C22.7794 9.888 22.7154 10.1973 22.5874 10.496C22.4594 10.784 22.2834 11.04 22.0594 11.264C21.846 11.488 21.59 11.6693 21.2914 11.808C20.9927 11.936 20.6727 12 20.3314 12H14.1394C13.8194 12 13.51 11.936 13.2114 11.808C12.9234 11.68 12.6674 11.5093 12.4434 11.296C12.2194 11.072 12.038 10.816 11.8994 10.528C11.7714 10.2293 11.7074 9.90933 11.7074 9.568V3.232C11.7074 2.912 11.7714 2.608 11.8994 2.32C12.0274 2.02133 12.198 1.76 12.4114 1.536C12.6354 1.312 12.8914 1.136 13.1794 1.008C13.478 0.869333 13.798 0.799999 14.1394 0.799999H20.3314ZM19.7074 4.192C19.7074 4 19.638 3.83467 19.4994 3.696C19.3607 3.55733 19.1954 3.488 19.0034 3.488H15.4674C15.286 3.488 15.126 3.55733 14.9874 3.696C14.8487 3.83467 14.7794 4 14.7794 4.192V8.608C14.7794 8.8 14.8487 8.96533 14.9874 9.104C15.126 9.24267 15.286 9.312 15.4674 9.312H19.0034C19.1954 9.312 19.3607 9.24267 19.4994 9.104C19.638 8.96533 19.7074 8.8 19.7074 8.608V4.192ZM33.2086 0.799999C33.5286 0.799999 33.8326 0.863999 34.1206 0.992C34.4193 1.12 34.6806 1.296 34.9046 1.52C35.1286 1.73333 35.3046 1.98933 35.4326 2.288C35.5713 2.576 35.6406 2.89067 35.6406 3.232V6.528C35.6406 6.848 35.5766 7.15733 35.4486 7.456C35.3206 7.744 35.1446 8 34.9206 8.224C34.7073 8.448 34.4513 8.62933 34.1526 8.768C33.854 8.896 33.5393 8.96 33.2086 8.96H27.6406V12H24.5686V0.799999H33.2086ZM32.5686 4.192C32.5686 4 32.4993 3.83467 32.3606 3.696C32.222 3.55733 32.062 3.488 31.8806 3.488H27.6406V6.272H31.8806C32.062 6.272 32.222 6.208 32.3606 6.08C32.4993 5.94133 32.5686 5.776 32.5686 5.584V4.192ZM47.1549 3.44C46.9842 3.44 46.8402 3.49333 46.7229 3.6C46.6162 3.70667 46.5629 3.84533 46.5629 4.016V4.48C46.5629 4.65067 46.6162 4.79467 46.7229 4.912C46.8402 5.01867 46.9842 5.072 47.1549 5.072H51.9869C52.3069 5.072 52.6109 5.136 52.8989 5.264C53.1975 5.392 53.4589 5.568 53.6829 5.792C53.9069 6.00533 54.0829 6.26133 54.2109 6.56C54.3495 6.848 54.4189 7.16267 54.4189 7.504V9.568C54.4189 9.888 54.3549 10.1973 54.2269 10.496C54.0989 10.784 53.9229 11.04 53.6989 11.264C53.4855 11.488 53.2295 11.6693 52.9309 11.808C52.6429 11.936 52.3282 12 51.9869 12H45.9389C45.6189 12 45.3095 11.936 45.0109 11.808C44.7122 11.68 44.4509 11.5093 44.2269 11.296C44.0029 11.072 43.8215 10.816 43.6829 10.528C43.5549 10.2293 43.4909 9.90933 43.4909 9.568V8.464H46.5629V8.672C46.5629 8.864 46.6322 9.02933 46.7709 9.168C46.9095 9.296 47.0749 9.36 47.2669 9.36H50.7709C50.9415 9.36 51.0802 9.30667 51.1869 9.2C51.2935 9.08267 51.3469 8.93867 51.3469 8.768V8.24C51.3469 8.06933 51.2935 7.93067 51.1869 7.824C51.0802 7.70667 50.9415 7.648 50.7709 7.648H45.9549C45.6349 7.648 45.3255 7.57867 45.0269 7.44C44.7282 7.30133 44.4669 7.12 44.2429 6.896C44.0189 6.66133 43.8375 6.38933 43.6989 6.08C43.5709 5.77067 43.5069 5.44533 43.5069 5.104V3.232C43.5069 2.912 43.5709 2.608 43.6989 2.32C43.8269 2.02133 43.9975 1.76 44.2109 1.536C44.4349 1.312 44.6962 1.136 44.9949 1.008C45.2935 0.869333 45.6135 0.799999 45.9549 0.799999H51.7149C52.0349 0.799999 52.3442 0.863999 52.6429 0.992C52.9415 1.12 53.2029 1.296 53.4269 1.52C53.6509 1.73333 53.8269 1.98933 53.9549 2.288C54.0935 2.576 54.1629 2.89067 54.1629 3.232V4.336H51.0909V4.128C51.0909 3.936 51.0215 3.776 50.8829 3.648C50.7442 3.50933 50.5789 3.44 50.3869 3.44H47.1549ZM66.1788 3.488H62.3548V12H59.2828V3.488H55.4268V0.799999H66.1788V3.488ZM74.7056 12L73.9376 10.064H69.1856L68.4176 12H65.2976L70.0336 0.799999H73.1056L77.8416 12H74.7056ZM70.2256 7.488H72.9136L71.5696 4.112L70.2256 7.488ZM87.3794 0.799999C87.6994 0.799999 88.0034 0.863999 88.2914 0.992C88.59 1.12 88.8514 1.296 89.0754 1.52C89.2994 1.73333 89.4754 1.98933 89.6034 2.288C89.742 2.576 89.8114 2.89067 89.8114 3.232V5.952C89.8114 6.25067 89.758 6.53867 89.6514 6.816C89.5447 7.08267 89.3954 7.32267 89.2034 7.536C89.0114 7.74933 88.782 7.93067 88.5154 8.08C88.2487 8.21867 87.9554 8.30933 87.6354 8.352L89.8434 12H86.5154L84.3234 8.384H81.8754V12H78.7874V0.799999H87.3794ZM86.7394 4.192C86.7394 4 86.67 3.83467 86.5314 3.696C86.4034 3.55733 86.2434 3.488 86.0514 3.488H81.8754V5.696H86.0514C86.2434 5.696 86.4034 5.62667 86.5314 5.488C86.67 5.34933 86.7394 5.184 86.7394 4.992V4.192Z" fill="#BAD621"/>
<path d="M106.188 7.696H100.828V12H97.7561V0.799999H107.404V3.488H100.828V5.008H106.188V7.696ZM112.109 0.799999V12H109.037V0.799999H112.109ZM124.007 3.488H120.183V12H117.111V3.488H113.255V0.799999H124.007V3.488ZM136.219 0.799999V12H132.443L128.219 4.832V12H125.147V0.799999H128.923L133.147 7.968V0.799999H136.219ZM147.748 12H138.084V0.799999H147.748V3.488H141.172V4.96H146.516V7.664H141.172V9.312H147.748V12ZM153.217 3.44C153.047 3.44 152.903 3.49333 152.785 3.6C152.679 3.70667 152.625 3.84533 152.625 4.016V4.48C152.625 4.65067 152.679 4.79467 152.785 4.912C152.903 5.01867 153.047 5.072 153.217 5.072H158.049C158.369 5.072 158.673 5.136 158.961 5.264C159.26 5.392 159.521 5.568 159.745 5.792C159.969 6.00533 160.145 6.26133 160.273 6.56C160.412 6.848 160.481 7.16267 160.481 7.504V9.568C160.481 9.888 160.417 10.1973 160.289 10.496C160.161 10.784 159.985 11.04 159.761 11.264C159.548 11.488 159.292 11.6693 158.993 11.808C158.705 11.936 158.391 12 158.049 12H152.001C151.681 12 151.372 11.936 151.073 11.808C150.775 11.68 150.513 11.5093 150.289 11.296C150.065 11.072 149.884 10.816 149.745 10.528C149.617 10.2293 149.553 9.90933 149.553 9.568V8.464H152.625V8.672C152.625 8.864 152.695 9.02933 152.833 9.168C152.972 9.296 153.137 9.36 153.329 9.36H156.833C157.004 9.36 157.143 9.30667 157.249 9.2C157.356 9.08267 157.409 8.93867 157.409 8.768V8.24C157.409 8.06933 157.356 7.93067 157.249 7.824C157.143 7.70667 157.004 7.648 156.833 7.648H152.017C151.697 7.648 151.388 7.57867 151.089 7.44C150.791 7.30133 150.529 7.12 150.305 6.896C150.081 6.66133 149.9 6.38933 149.761 6.08C149.633 5.77067 149.569 5.44533 149.569 5.104V3.232C149.569 2.912 149.633 2.608 149.761 2.32C149.889 2.02133 150.06 1.76 150.273 1.536C150.497 1.312 150.759 1.136 151.057 1.008C151.356 0.869333 151.676 0.799999 152.017 0.799999H157.777C158.097 0.799999 158.407 0.863999 158.705 0.992C159.004 1.12 159.265 1.296 159.489 1.52C159.713 1.73333 159.889 1.98933 160.017 2.288C160.156 2.576 160.225 2.89067 160.225 3.232V4.336H157.153V4.128C157.153 3.936 157.084 3.776 156.945 3.648C156.807 3.50933 156.641 3.44 156.449 3.44H153.217ZM165.999 3.44C165.828 3.44 165.684 3.49333 165.567 3.6C165.46 3.70667 165.407 3.84533 165.407 4.016V4.48C165.407 4.65067 165.46 4.79467 165.567 4.912C165.684 5.01867 165.828 5.072 165.999 5.072H170.831C171.151 5.072 171.455 5.136 171.743 5.264C172.041 5.392 172.303 5.568 172.527 5.792C172.751 6.00533 172.927 6.26133 173.055 6.56C173.193 6.848 173.263 7.16267 173.263 7.504V9.568C173.263 9.888 173.199 10.1973 173.071 10.496C172.943 10.784 172.767 11.04 172.543 11.264C172.329 11.488 172.073 11.6693 171.775 11.808C171.487 11.936 171.172 12 170.831 12H164.783C164.463 12 164.153 11.936 163.855 11.808C163.556 11.68 163.295 11.5093 163.071 11.296C162.847 11.072 162.665 10.816 162.527 10.528C162.399 10.2293 162.335 9.90933 162.335 9.568V8.464H165.407V8.672C165.407 8.864 165.476 9.02933 165.615 9.168C165.753 9.296 165.919 9.36 166.111 9.36H169.615C169.785 9.36 169.924 9.30667 170.031 9.2C170.137 9.08267 170.191 8.93867 170.191 8.768V8.24C170.191 8.06933 170.137 7.93067 170.031 7.824C169.924 7.70667 169.785 7.648 169.615 7.648H164.799C164.479 7.648 164.169 7.57867 163.871 7.44C163.572 7.30133 163.311 7.12 163.087 6.896C162.863 6.66133 162.681 6.38933 162.543 6.08C162.415 5.77067 162.351 5.44533 162.351 5.104V3.232C162.351 2.912 162.415 2.608 162.543 2.32C162.671 2.02133 162.841 1.76 163.055 1.536C163.279 1.312 163.54 1.136 163.839 1.008C164.137 0.869333 164.457 0.799999 164.799 0.799999H170.559C170.879 0.799999 171.188 0.863999 171.487 0.992C171.785 1.12 172.047 1.296 172.271 1.52C172.495 1.73333 172.671 1.98933 172.799 2.288C172.937 2.576 173.007 2.89067 173.007 3.232V4.336H169.935V4.128C169.935 3.936 169.865 3.776 169.727 3.648C169.588 3.50933 169.423 3.44 169.231 3.44H165.999ZM183.718 12C183.398 12 183.088 11.936 182.789 11.808C182.502 11.68 182.246 11.5093 182.022 11.296C181.798 11.072 181.616 10.816 181.478 10.528C181.35 10.2293 181.286 9.90933 181.286 9.568V3.232C181.286 2.912 181.35 2.608 181.478 2.32C181.606 2.02133 181.776 1.76 181.99 1.536C182.214 1.312 182.47 1.136 182.758 1.008C183.056 0.869333 183.376 0.799999 183.718 0.799999H189.222C189.542 0.799999 189.851 0.863999 190.15 0.992C190.448 1.12 190.71 1.296 190.934 1.52C191.158 1.73333 191.334 1.98933 191.462 2.288C191.6 2.576 191.67 2.89067 191.67 3.232V4.688H188.598V4.192C188.598 4 188.528 3.83467 188.39 3.696C188.251 3.55733 188.086 3.488 187.894 3.488H185.046C184.854 3.488 184.688 3.55733 184.549 3.696C184.422 3.83467 184.358 4 184.358 4.192V8.608C184.358 8.8 184.422 8.96533 184.549 9.104C184.688 9.24267 184.854 9.312 185.046 9.312H187.894C188.086 9.312 188.251 9.24267 188.39 9.104C188.528 8.96533 188.598 8.8 188.598 8.608V8.112H191.67V9.568C191.67 9.90933 191.6 10.2293 191.462 10.528C191.334 10.816 191.158 11.072 190.934 11.296C190.71 11.5093 190.448 11.68 190.15 11.808C189.851 11.936 189.542 12 189.222 12H183.718ZM196.172 9.312H202.684V12H193.084V0.799999H196.172V9.312ZM203.928 0.799999H207V8.624C207 8.816 207.064 8.98133 207.192 9.12C207.331 9.248 207.496 9.312 207.688 9.312H211.224C211.416 9.312 211.576 9.248 211.704 9.12C211.843 8.98133 211.912 8.816 211.912 8.624V0.799999H215V9.568C215 9.888 214.936 10.1973 214.808 10.496C214.68 10.784 214.504 11.04 214.28 11.264C214.067 11.488 213.811 11.6693 213.512 11.808C213.213 11.936 212.893 12 212.552 12H206.36C206.019 12 205.699 11.936 205.4 11.808C205.112 11.6693 204.856 11.488 204.632 11.264C204.419 11.04 204.248 10.784 204.12 10.496C203.992 10.1973 203.928 9.888 203.928 9.568V0.799999ZM225.41 0.799999C225.73 0.799999 226.04 0.863999 226.338 0.992C226.637 1.12 226.898 1.296 227.122 1.52C227.346 1.73333 227.522 1.98933 227.65 2.288C227.789 2.576 227.858 2.89067 227.858 3.232V4.4C227.858 4.80533 227.762 5.184 227.57 5.536C227.378 5.888 227.117 6.176 226.786 6.4C227.106 6.624 227.362 6.912 227.554 7.264C227.757 7.60533 227.858 7.984 227.858 8.4V9.568C227.858 9.888 227.794 10.1973 227.666 10.496C227.538 10.784 227.362 11.04 227.138 11.264C226.925 11.488 226.669 11.6693 226.37 11.808C226.072 11.936 225.752 12 225.41 12H216.834V0.799999H225.41ZM224.77 8.304C224.77 8.12267 224.701 7.96267 224.562 7.824C224.434 7.68533 224.274 7.616 224.082 7.616H219.906V9.408H224.082C224.274 9.408 224.434 9.344 224.562 9.216C224.701 9.07733 224.77 8.912 224.77 8.72V8.304ZM224.77 4.272C224.77 4.05867 224.717 3.856 224.61 3.664C224.504 3.472 224.328 3.376 224.082 3.376H219.906V5.184H224.082C224.274 5.184 224.434 5.11467 224.562 4.976C224.701 4.83733 224.77 4.672 224.77 4.48V4.272Z" fill="white"/>
</svg>
