<svg xmlns="http://www.w3.org/2000/svg" xml:space="preserve" viewBox="0 0 29700 21000" shape-rendering="geometricPrecision" text-rendering="geometricPrecision" image-rendering="optimizeQuality" fill-rule="evenodd" clip-rule="evenodd">
  <defs>
    <style>
      .fil1{fill:#00a0e3}.fil0{fill:#fdfdfd}
    </style>
  </defs>
  <g id="Слой_x0020_1">
    <g id="_2067624923792">
      <path class="fil0" d="m17983.81 10084.15 2.62 2006.62h718.19l-.7-3042.53-1106.34-.98-606.24 1889.81-591.39-1889.84-1123.02 2.23 2.28 3043.99 719.33-.01 6.75-2005.5 647.6 2005.51 678.38.06zM24849.58 12093.81l661.28-1.42-.25-3045.01-724.85.38-.24 1877.13-1538.54-1877.3-717.53.07-1.08 3043.11h718.6l.02-1986.84zM20622.04 9753.77l422.05 991.64-849-1.23 426.95-990.41zM19961 11287.15l1318.2 1.08 346.04 805.22 725.37-.23-1298.85-3045.96-860.82.75-1300.31 3045.5 726.75-.52 343.62-805.84zM4190.53 9835.58l972.57.87 3.25 2257.06 964.89-.12 4.07-2257.61 973.54-1.2-.28-787.31-2919.43 2.36z"/>
      <path class="fil1" d="M7893.81 10304.16c-.47-361.87 128.62-628.66 291.28-849.1 82.59-111.94 175.19-212.17 264.43-300.39 94.85-93.77 192.37-185.94 287.74-279.56-598.71 165.52-936.9 453.35-1133.04 710.45-184.98 242.47-257.85 511.22-258.12 837.15-.72 865.24 705.54 1528.81 1514.32 1595.6 507.47 41.91 853.87-149.48 1169.19-363 216.34-146.49 521.88-428.47 733.79-618.95l150.59-135.36c170.77-153.5 381.66-352.35 570.18-496.92 37.79-28.98 68.42-58.45 106.44-88.74 510.66-406.94 1537.63-1213.71 2251.62-858.38 317.7 158.11 544.87 501.93 545.15 993.65.24 387.29-130.03 682.77-325.59 913.42-64.57 76.14-196.68 177.22-281.75 220.16-591.69 298.61-1245.53 11.4-1747.56-296.52-58.06-35.61-314.05-209.62-344.29-220.36l155.61 206.84c53.74 68.69 193.01 239.92 254.69 303.26 98.61 101.28 172.12 170.07 289.38 254.55 282.08 203.23 708.26 348.17 1152.72 272.6 712.23-121.12 1362.33-761.7 1363.54-1570.27 1.12-752.16-477.68-1376.01-1011.01-1574.56-352.05-131.07-764.43-89.65-1100.87 39.52-495.63 190.3-955.09 581.81-1357.23 909.39-31.19 25.41-54.93 47.29-86.45 73.86-59.3 49.97-118.51 100.07-177.21 150.75-29.94 25.85-55.19 52.06-84.99 75.27-73.36 57.16-185.98 162.5-257.79 223.37l-437.91 371.15c-58.5 49.58-115.46 95.84-174.87 145.79-113.35 95.3-235.87 185.61-364.63 276.99-226.43 160.69-562.7 365.22-928.61 365.86-488.04.86-859.92-363.88-960.89-780.16-39.25-161.81-67.64-331.65-67.86-507.36z"/>
      <path class="fil1" d="M8151.11 10189.91c122.75-172.68 281.45-425.91 433.1-558.77 450.17-394.42 944.99-416.19 1480.66-134.56 286.51 150.63 513.27 385.59 578.95 422.28-94.06-306.52-372.48-682.27-642.57-853.77-207.8-131.95-473.95-193.73-728.22-160.05-391.53 51.87-660.12 278.1-841.99 510.14-154.9 197.62-283.11 483.26-279.93 774.73z"/>
    </g>
  </g>
</svg>
