<svg width="73" height="73" viewBox="0 0 73 73" fill="none" xmlns="http://www.w3.org/2000/svg">
<path d="M0 70.5303C0 71.8943 1.10609 73.0044 2.4693 72.9582C11.2135 72.6623 19.8403 70.7965 27.9359 67.4432C36.7927 63.7746 44.8401 58.3975 51.6188 51.6188C58.3975 44.8401 63.7746 36.7927 67.4432 27.9359C70.7965 19.8403 72.6623 11.2135 72.9582 2.4693C73.0044 1.10609 71.8943 -7.62939e-06 70.5303 -7.62939e-06C69.1663 -7.62939e-06 68.0652 1.1061 68.0158 2.46919C67.7219 10.5645 65.9848 18.5494 62.8798 26.0456C59.4594 34.3031 54.4461 41.8061 48.1261 48.1261C41.8061 54.4461 34.3031 59.4594 26.0456 62.8798C18.5494 65.9848 10.5646 67.7219 2.4692 68.0158C1.10611 68.0652 0 69.1663 0 70.5303Z" fill="#BAD621"/>
</svg>
