<svg width="73" height="73" viewBox="0 0 73 73" fill="none" xmlns="http://www.w3.org/2000/svg">
<path d="M73 2.46972C73 1.10573 71.8939 -0.00436346 70.5307 0.0417732C61.7865 0.337713 53.1597 2.2035 45.0641 5.5568C36.2073 9.22539 28.1599 14.6025 21.3812 21.3812C14.6025 28.1599 9.22538 36.2073 5.55679 45.0641C2.2035 53.1597 0.337712 61.7865 0.0417729 70.5307C-0.0043636 71.8939 1.10573 73 2.46972 73C3.83371 73 4.93476 71.8939 4.98424 70.5308C5.27812 62.4355 7.01518 54.4506 10.1202 46.9544C13.5406 38.6969 18.5539 31.1939 24.8739 24.8739C31.1939 18.5539 38.6969 13.5406 46.9543 10.1202C54.4506 7.01519 62.4354 5.27812 70.5308 4.98424C71.8939 4.93476 73 3.83371 73 2.46972Z" fill="#BAD621"/>
</svg>
